<?xml version="1.0" standalone="no"?>
<!DOCTYPE svg PUBLIC "-//W3C//DTD SVG 20010904//EN"
 "http://www.w3.org/TR/2001/REC-SVG-20010904/DTD/svg10.dtd">
<svg version="1.0" xmlns="http://www.w3.org/2000/svg"
 width="500.000000pt" height="500.000000pt" viewBox="0 0 500.000000 500.000000"
 preserveAspectRatio="xMidYMid meet">

<g transform="translate(0.000000,500.000000) scale(0.100000,-0.100000)"
fill="#000000" stroke="none">
<path d="M2175 4611 c-233 -39 -481 -120 -665 -218 -615 -328 -1029 -918
-1124 -1601 -21 -145 -21 -425 -1 -577 30 -225 102 -460 205 -664 110 -219
218 -371 394 -549 314 -320 697 -521 1156 -608 135 -26 477 -30 636 -9 365 49
712 189 1005 406 114 85 315 284 404 400 219 285 354 593 421 954 25 137 30
489 10 636 -129 925 -822 1652 -1733 1820 -168 31 -548 36 -708 10z m448 -207
c33 -6 37 -10 37 -35 0 -26 -3 -29 -35 -29 l-35 0 0 -100 0 -100 -41 0 -40 0
7 105 7 105 -37 0 c-31 0 -36 3 -36 23 0 13 3 27 7 30 8 9 115 9 166 1z m-345
-40 c48 -32 70 -153 36 -202 -37 -54 -138 -70 -189 -30 -59 46 -74 153 -30
206 42 50 128 62 183 26z m602 1 c43 -22 60 -53 60 -108 0 -97 -45 -151 -124
-149 -109 1 -166 92 -122 196 29 70 115 98 186 61z m-870 -51 c6 -14 10 -27
10 -29 0 -2 -18 -10 -40 -16 -37 -11 -51 -31 -31 -43 5 -3 23 -1 41 5 26 9 34
9 41 -2 17 -27 9 -46 -23 -55 -34 -10 -42 -22 -29 -43 7 -11 15 -11 45 -1 43
14 42 14 51 -22 7 -26 5 -28 -65 -49 -40 -12 -75 -18 -80 -13 -13 14 -81 236
-75 243 6 6 123 49 138 50 4 1 12 -11 17 -25z m1119 -22 c30 -15 59 -34 64
-43 15 -24 -1 -68 -28 -81 -21 -10 -23 -13 -11 -30 30 -43 -8 -98 -68 -98 -55
0 -141 34 -140 54 1 9 19 66 40 127 44 125 39 123 143 71z m-1294 -142 c30
-60 55 -114 55 -120 0 -5 -18 -19 -39 -30 l-39 -19 -75 54 c-41 30 -78 55 -82
55 -3 0 12 -34 35 -75 l41 -74 -33 -17 c-18 -9 -47 -27 -65 -40 l-31 -24 -47
21 c-25 11 -50 19 -56 17 -5 -2 2 -20 17 -41 l25 -38 -23 -19 c-13 -11 -26
-19 -30 -20 -8 0 -146 182 -154 204 -6 15 88 82 128 92 39 9 91 -43 86 -87 -3
-29 0 -32 47 -50 28 -10 53 -19 58 -19 4 0 -18 49 -48 110 -30 60 -55 113 -55
118 0 9 64 42 80 42 6 0 41 -22 79 -50 38 -27 72 -50 75 -50 3 0 -10 32 -30
72 -34 68 -35 72 -18 85 10 7 24 13 31 13 7 0 38 -49 68 -110z m1533 45 c57
-30 55 -22 31 -161 -12 -71 -25 -133 -29 -137 -4 -4 -21 0 -39 10 -26 15 -30
23 -26 43 5 22 0 29 -31 43 -34 17 -38 17 -55 1 -18 -16 -21 -16 -55 2 l-36
19 103 98 c57 53 105 97 107 97 1 0 15 -7 30 -15z m238 -154 c23 -10 51 -32
62 -49 l22 -30 -26 -16 c-24 -17 -26 -16 -54 14 -34 37 -61 34 -97 -8 -40 -47
-25 -98 35 -116 27 -9 28 -18 2 -41 -43 -39 -140 36 -140 109 0 57 61 135 115
149 33 8 39 7 81 -12z m-2257 -169 c74 -60 86 -130 34 -193 -59 -69 -125 -74
-193 -13 -69 63 -74 138 -12 197 56 54 112 57 171 9z m1291 28 c516 -55 948
-429 1084 -940 35 -129 50 -317 36 -451 -53 -526 -427 -960 -948 -1101 -112
-31 -125 -32 -312 -32 -178 -1 -204 2 -300 26 -438 111 -780 431 -914 858 -46
143 -59 247 -54 425 4 122 10 181 28 249 61 242 179 446 356 616 211 204 481
329 754 350 141 11 166 11 270 0z m1143 -14 c36 -15 87 -69 87 -92 0 -21 -51
-39 -62 -22 -4 7 -8 16 -8 20 0 4 -11 15 -24 23 -22 15 -27 15 -55 0 -17 -8
-38 -29 -46 -45 -19 -36 -8 -62 36 -89 l29 -18 -23 -21 -23 -21 -32 19 c-40
25 -72 75 -72 115 0 41 42 100 88 124 45 24 62 25 105 7z m190 -204 c66 -62
74 -122 25 -178 -74 -84 -162 -89 -218 -12 -58 79 -33 159 63 207 51 27 90 21
130 -17z m-2861 -9 c10 -9 18 -24 18 -34 0 -15 5 -17 29 -13 23 5 35 1 55 -19
14 -15 26 -36 26 -47 0 -27 -24 -74 -62 -123 l-30 -37 -46 33 c-26 19 -75 54
-109 79 l-63 45 39 52 c22 29 48 59 58 67 25 18 63 17 85 -3z m-157 -1078 c32
-33 35 -40 35 -95 0 -55 -3 -62 -35 -95 -33 -32 -40 -35 -95 -35 -51 0 -64 4
-90 28 -18 15 -35 43 -39 65 -12 53 3 107 39 140 26 23 39 27 90 27 55 0 62
-3 95 -35z m3351 2 c31 -28 37 -41 41 -83 7 -85 -48 -146 -131 -146 -82 0
-136 53 -136 132 0 82 51 129 138 130 45 0 57 -4 88 -33z m-2773 -1169 c33
-32 47 -52 47 -71 0 -29 -31 -67 -54 -67 -8 0 -13 -11 -13 -26 0 -36 -35 -67
-73 -66 -33 1 -144 75 -138 93 2 5 36 51 77 103 84 106 77 105 154 34z m2031
43 c16 -18 15 -20 -15 -45 -26 -22 -29 -29 -18 -42 11 -13 15 -12 39 11 l26
25 23 -24 22 -24 -30 -22 c-26 -18 -29 -24 -20 -41 10 -20 11 -20 46 7 l36 27
17 -23 c18 -23 17 -24 -42 -73 -32 -27 -60 -48 -62 -46 -72 84 -157 192 -154
199 4 10 100 90 109 90 3 0 14 -8 23 -19z m-142 -151 c25 -25 29 -36 24 -61
-5 -28 -2 -31 49 -56 30 -15 55 -30 55 -33 0 -3 -14 -13 -31 -22 -29 -17 -31
-17 -80 7 -54 28 -60 21 -29 -31 l21 -33 -31 -16 c-18 -9 -33 -15 -35 -13 -2
2 -32 50 -68 107 l-66 105 35 24 c40 27 93 51 112 52 8 0 27 -14 44 -30z
m-1694 -20 c17 -11 32 -28 32 -37 -1 -24 -46 -243 -52 -248 -2 -2 -18 5 -36
15 -26 16 -31 25 -26 44 4 19 -1 27 -28 44 -32 21 -33 21 -52 3 -18 -18 -19
-18 -53 1 l-34 20 63 57 c34 31 79 71 98 88 41 38 45 39 88 13z m1497 -104
c17 -19 38 -54 45 -79 11 -41 10 -50 -6 -83 -48 -95 -181 -98 -228 -6 -41 80
-23 146 47 181 63 32 103 28 142 -13z m-1237 -18 c37 -23 39 -29 13 -52 -18
-17 -22 -17 -43 -2 -52 37 -101 5 -102 -67 -1 -41 0 -42 45 -57 43 -14 45 -17
36 -37 -21 -47 -119 -16 -152 48 -14 26 -15 39 -5 77 27 111 113 148 208 90z
m994 -43 c6 -28 1 -35 -23 -35 -29 0 -30 -15 -8 -105 23 -91 21 -99 -21 -110
-25 -6 -26 -4 -49 90 l-23 97 -34 -7 c-26 -4 -34 -2 -34 9 0 8 -3 21 -6 29 -4
11 14 19 73 35 107 28 120 27 125 -3z m-774 -21 c25 -17 26 -22 8 -47 -12 -16
-16 -16 -49 -2 -44 18 -62 12 -77 -26 -28 -68 -7 -109 57 -109 35 0 36 -2 27
-37 -13 -47 -130 -18 -159 38 -32 62 -2 163 58 193 36 19 98 14 135 -10z m560
-13 c8 -5 11 -17 7 -33 -6 -21 -12 -25 -47 -24 -55 1 -60 -20 -9 -35 55 -16
81 -43 81 -83 0 -47 -36 -78 -101 -84 -43 -4 -55 -2 -66 13 -28 39 -17 53 40
51 65 -1 71 20 12 41 -86 29 -103 112 -30 151 24 13 94 15 113 3z m-337 -17
c30 -15 59 -65 59 -101 0 -38 -23 -97 -45 -119 -31 -31 -114 -33 -162 -4 -70
42 -63 193 11 229 32 15 103 13 137 -5z m849 -241 c0 -32 -12 -43 -25 -23 -11
18 -26 10 -20 -10 9 -27 -7 -25 -45 6 -34 29 -34 42 -1 24 17 -9 21 -8 21 5 0
18 21 20 38 3 9 -9 12 -4 12 23 0 25 3 30 10 19 5 -8 10 -30 10 -47z m-1516
21 c29 -28 12 -53 -24 -34 -11 6 -20 7 -20 2 0 -6 10 -13 23 -17 19 -6 20 -8
4 -12 -20 -5 -47 13 -47 33 0 14 27 44 40 44 5 0 16 -7 24 -16z m96 -76 c0
-15 -5 -30 -11 -34 -9 -5 -10 1 -5 20 7 29 -8 35 -23 9 -14 -25 -22 -12 -15
24 5 28 8 29 30 19 16 -8 24 -19 24 -38z m1294 6 c17 -45 -8 -80 -39 -54 -15
13 -20 51 -8 63 12 13 41 7 47 -9z m-94 -13 c0 -5 -7 -12 -16 -15 -12 -4 -14
-14 -9 -36 8 -38 -5 -38 -27 -1 -16 29 -15 30 5 45 25 17 47 20 47 7z m-1120
-19 c0 -28 -29 -62 -53 -61 l-22 0 23 9 c14 6 25 21 28 40 7 32 24 41 24 12z
m79 -11 c21 -13 0 -65 -27 -69 -28 -4 -38 21 -24 54 12 25 27 30 51 15z m888
-10 c4 -16 8 -18 23 -9 14 9 22 9 34 -1 21 -17 21 -57 0 -65 -15 -6 -54 -8
-54 -3 0 1 -7 23 -15 50 -9 30 -10 47 -4 47 6 0 13 -9 16 -19z m-805 -51 c4 0
12 9 18 20 6 11 15 18 21 15 8 -5 -15 -42 -60 -97 -4 -4 -7 21 -7 55 -1 53 1
58 9 35 6 -16 14 -28 19 -28z m165 0 c-5 -40 -3 -51 11 -59 15 -9 14 -10 -5
-11 -21 0 -23 5 -23 53 0 49 5 67 18 67 3 0 2 -22 -1 -50z m243 -4 c0 -8 6
-17 13 -19 9 -4 9 -8 -2 -15 -16 -12 -7 -47 10 -36 7 4 10 1 7 -6 -7 -22 -27
-23 -34 -3 -3 10 -9 25 -14 34 -10 19 -2 59 11 59 5 0 9 -6 9 -14z m283 -22
c7 -42 -6 -74 -30 -74 -15 0 -15 2 0 18 23 25 21 30 -7 25 -15 -3 -25 1 -30
12 -9 25 12 55 38 55 19 0 24 -7 29 -36z m-93 -25 c0 -18 -18 -8 -25 14 -7 21
-7 21 -12 2 -12 -56 -18 -57 -33 -5 -7 26 -6 31 5 26 8 -3 17 0 21 6 7 11 44
-25 44 -43z m-263 1 c1 -19 -1 -26 -4 -15 -8 33 -20 38 -27 11 -9 -37 -26 -32
-26 7 0 29 3 33 28 32 24 0 27 -4 29 -35z m-98 3 c0 -25 -1 -26 -9 -8 -12 27
-12 35 0 35 6 0 10 -12 9 -27z m251 1 c0 -14 -4 -23 -10 -19 -5 3 -10 15 -10
26 0 10 5 19 10 19 6 0 10 -12 10 -26z"/>
<path d="M2162 4308 c-14 -14 -16 -67 -3 -101 12 -30 43 -42 71 -27 25 13 28
84 4 118 -17 24 -53 29 -72 10z"/>
<path d="M2775 4290 c-8 -16 -15 -45 -15 -65 0 -28 5 -38 26 -47 35 -16 56 -2
73 51 11 36 11 44 -3 66 -23 35 -61 33 -81 -5z"/>
<path d="M3073 4234 c-5 -15 11 -33 30 -34 15 0 20 32 6 41 -20 13 -29 11 -36
-7z"/>
<path d="M3037 4138 c-8 -27 -1 -38 24 -38 28 0 37 30 14 46 -26 19 -32 18
-38 -8z"/>
<path d="M1432 3997 c-14 -17 12 -52 33 -44 18 8 20 28 3 45 -15 15 -23 15
-36 -1z"/>
<path d="M3311 4096 c-33 -34 -33 -34 -11 -46 12 -6 23 -10 25 -8 5 5 25 82
22 85 -2 1 -18 -13 -36 -31z"/>
<path d="M1222 3818 c-21 -21 -13 -58 17 -89 46 -45 101 -35 101 19 0 52 -85
103 -118 70z"/>
<path d="M2355 3820 c-115 -12 -263 -57 -380 -115 -517 -254 -772 -818 -624
-1381 97 -371 402 -694 769 -814 631 -206 1309 138 1509 765 42 130 56 224 55
365 -2 313 -113 592 -324 814 -262 276 -620 407 -1005 366z m355 -86 c209 -39
399 -137 558 -288 143 -135 249 -307 308 -501 27 -87 28 -98 28 -305 0 -206
-1 -219 -27 -305 -82 -270 -249 -492 -484 -645 -259 -170 -626 -216 -933 -118
-281 89 -528 301 -658 563 -93 187 -116 304 -110 545 4 150 9 187 31 260 122
404 444 704 847 790 110 24 326 26 440 4z"/>
<path d="M2406 3629 c-2 -8 -10 -52 -16 -99 -27 -205 -36 -244 -86 -403 -30
-92 -54 -172 -54 -176 0 -5 26 -36 58 -68 32 -32 74 -82 94 -111 50 -75 59
-46 9 32 -40 65 -71 129 -71 150 0 6 16 -18 36 -54 19 -36 43 -76 53 -89 l19
-25 12 41 c12 40 11 43 -27 105 -37 59 -83 157 -83 175 0 4 19 -26 41 -67 22
-41 52 -90 67 -109 l26 -34 19 39 18 39 -45 70 c-44 66 -92 173 -82 182 2 2
15 -20 29 -51 14 -30 44 -82 67 -117 l43 -62 18 24 c27 35 23 56 -19 105 -40
45 -102 152 -102 175 0 8 13 -9 28 -37 30 -54 102 -152 102 -139 0 44 -38 148
-70 190 -41 55 -70 107 -70 127 0 7 9 -5 20 -27 11 -22 31 -53 44 -70 l25 -30
-15 50 c-39 126 -53 179 -50 182 2 3 14 -26 27 -64 12 -37 28 -81 36 -98 13
-29 14 -27 9 30 -2 37 -1 52 4 40 5 -11 9 -46 9 -77 1 -57 29 -168 42 -168 7
0 24 70 32 135 2 17 5 5 6 -26 0 -31 -6 -78 -14 -105 -9 -30 -13 -65 -9 -91
l6 -42 44 54 c24 29 44 63 44 74 0 11 5 23 12 27 7 5 9 0 6 -14 -5 -19 -3 -20
12 -12 11 6 21 14 24 18 11 19 -65 139 -146 230 -125 140 -176 188 -182 171z"/>
<path d="M1887 3462 c-3 -15 3 -82 14 -151 10 -68 19 -141 19 -161 l0 -38 68
-21 c37 -11 96 -38 132 -60 36 -21 67 -38 69 -36 8 8 -13 27 -51 46 -45 23
-133 102 -150 134 -6 11 14 -3 44 -31 51 -48 115 -90 124 -82 11 11 -72 121
-104 138 -41 22 -67 43 -97 80 -20 25 -19 25 10 -1 42 -36 95 -72 95 -64 0 4
-13 24 -29 44 -39 49 -91 133 -91 145 0 6 15 -12 34 -39 75 -109 105 -130 72
-50 -8 19 -13 35 -10 35 8 0 44 -84 44 -103 0 -22 59 -107 73 -107 9 0 5 54
-9 130 -4 22 -3 22 10 -5 9 -17 15 -60 16 -100 0 -54 6 -81 24 -118 l25 -48
20 66 c12 37 21 84 22 104 0 28 2 32 8 16 7 -17 9 -16 15 13 5 22 3 38 -5 48
-21 25 -87 68 -194 124 -55 29 -121 68 -146 86 l-47 32 -5 -26z"/>
<path d="M2983 3291 c-146 -44 -232 -91 -298 -164 -126 -138 -192 -280 -202
-432 -8 -125 -1 -140 37 -84 28 41 30 51 31 144 l2 100 11 -88 11 -88 31 33
c29 31 30 36 22 78 -11 54 -5 169 10 195 7 14 9 2 5 -47 -3 -36 -2 -88 2 -114
l7 -49 24 59 c16 40 24 79 24 119 0 59 24 174 40 191 5 5 2 -14 -6 -42 -8 -28
-14 -77 -12 -109 l3 -58 24 40 c14 22 33 70 42 107 18 69 37 113 45 105 2 -2
-2 -19 -10 -38 -7 -19 -17 -50 -21 -69 l-7 -35 43 49 c24 27 51 66 60 85 9 20
24 43 35 51 18 15 18 14 1 -12 -26 -41 -21 -43 26 -7 74 58 74 54 -3 -19 -79
-75 -78 -90 5 -46 27 14 43 19 37 12 -6 -8 -33 -24 -59 -36 -26 -13 -59 -28
-72 -35 -14 -7 -40 -34 -59 -60 l-34 -48 58 26 c32 14 72 36 88 49 52 38 63
39 21 1 -21 -19 -73 -52 -114 -73 -62 -30 -80 -45 -99 -79 l-23 -43 39 14 c55
20 98 43 157 83 l50 35 -45 -42 c-40 -38 -148 -99 -198 -112 -11 -3 -24 -20
-30 -37 -13 -35 -14 -36 56 11 52 36 208 114 243 123 32 8 45 49 79 238 12 65
24 125 27 133 7 18 7 18 -104 -15z"/>
<path d="M1564 3082 c8 -16 29 -76 45 -133 17 -57 46 -133 65 -169 18 -36 78
-152 132 -258 150 -292 201 -339 383 -353 86 -6 98 -10 118 -33 47 -55 77
-241 60 -383 -8 -73 -8 -95 2 -107 16 -19 55 -21 69 -3 5 6 16 71 25 142 18
154 47 254 86 297 l28 32 119 0 c110 1 123 3 179 30 78 38 180 141 316 321 59
77 131 168 162 202 81 91 188 248 175 257 -10 8 -471 -13 -512 -23 -57 -14
-220 -95 -292 -146 -84 -60 -163 -146 -194 -210 -41 -85 -49 -133 -50 -275 -1
-110 -4 -130 -24 -169 -30 -57 -39 -43 -44 70 -3 62 1 105 14 155 39 150 13
330 -62 431 -79 105 -202 212 -302 262 -83 42 -336 91 -469 91 l-44 0 15 -28z
m167 -57 c81 -39 86 -39 49 1 l-35 37 33 -22 c18 -13 42 -36 54 -52 26 -35
138 -115 138 -99 0 19 -49 112 -73 140 -12 14 -5 9 16 -10 37 -34 87 -120 87
-150 0 -9 25 -40 55 -70 51 -51 55 -53 55 -29 0 48 -22 143 -42 182 -11 22
-15 36 -9 32 31 -19 71 -141 71 -218 0 -34 7 -58 26 -87 15 -22 31 -40 36 -40
6 0 9 42 6 110 -3 101 -2 107 10 73 8 -23 12 -77 11 -138 -1 -92 1 -104 26
-147 15 -27 30 -48 35 -48 11 0 20 64 21 155 0 54 3 74 9 60 12 -28 12 -162 0
-226 -9 -46 -8 -61 9 -104 l19 -50 12 30 c6 17 17 54 23 83 6 28 15 52 20 52
10 0 1 -56 -25 -146 l-20 -71 36 -135 c20 -75 36 -146 36 -159 1 -15 14 8 34
56 18 44 46 107 63 140 29 56 30 63 20 116 -6 38 -6 72 0 105 l11 49 1 -45 c2
-58 12 -120 20 -120 3 0 18 21 32 48 19 34 27 63 28 106 2 66 16 141 32 165 8
13 9 11 5 -9 -4 -14 -9 -61 -12 -105 l-5 -80 49 55 c45 49 51 61 56 115 7 62
34 160 43 151 3 -2 -1 -28 -7 -58 -7 -29 -10 -69 -8 -87 l3 -35 37 33 c27 23
41 48 53 89 20 71 53 128 96 167 l32 30 -31 -40 c-47 -60 -96 -185 -73 -185 5
0 12 4 15 9 3 5 30 23 60 39 29 17 63 46 74 64 11 18 38 49 59 69 70 65 79 65
20 0 -48 -54 -66 -81 -54 -81 18 0 125 54 145 73 26 24 83 57 99 57 4 0 -12
-12 -35 -27 -23 -15 -42 -31 -42 -35 0 -7 139 41 183 63 20 10 21 10 7 -4 -8
-9 -60 -34 -115 -57 l-100 -41 74 4 c108 6 63 -11 -56 -21 -80 -7 -109 -15
-158 -40 l-60 -31 65 0 c36 -1 92 6 125 13 33 8 61 13 63 11 12 -11 -110 -38
-193 -42 -94 -5 -104 -7 -157 -42 -32 -20 -58 -40 -58 -45 0 -13 192 1 269 19
86 21 89 11 4 -15 -47 -16 -104 -24 -189 -27 l-122 -6 -43 -41 -44 -41 80 -3
c82 -3 215 11 273 29 18 6 36 9 39 6 3 -3 -26 -15 -64 -27 -51 -17 -103 -23
-211 -27 l-142 -6 -34 -46 -35 -46 27 -7 c35 -10 253 7 320 25 61 16 67 13 15
-8 -56 -24 -196 -45 -294 -45 l-88 0 -26 -45 c-15 -24 -24 -49 -20 -55 8 -14
173 -4 260 15 65 15 85 12 39 -5 -58 -22 -167 -40 -245 -40 l-80 0 -40 -86
c-39 -85 -72 -203 -83 -296 -15 -127 -18 -139 -29 -135 -13 4 -12 55 3 151 8
53 -6 202 -25 258 -2 7 -13 46 -25 86 l-21 72 -37 0 c-63 0 -174 28 -240 61
-72 35 -79 50 -10 19 52 -23 148 -45 229 -54 l57 -6 -17 58 -17 57 -95 13
c-52 6 -119 19 -149 28 -61 18 -155 63 -147 70 3 3 18 -1 34 -9 86 -45 353
-87 340 -54 -41 103 -33 95 -100 102 -108 12 -209 36 -274 65 -74 34 -84 48
-15 21 88 -34 322 -75 322 -56 0 4 -10 23 -21 42 -24 39 -53 53 -108 53 -53 0
-180 34 -240 65 -28 14 -51 27 -51 29 0 2 38 -9 84 -25 74 -26 251 -57 261
-47 2 2 -17 27 -43 55 -44 48 -51 52 -107 58 -84 9 -171 32 -224 60 -51 27
-49 33 3 11 35 -14 149 -40 220 -50 l39 -5 -29 31 c-50 53 -105 88 -139 88
-40 0 -124 25 -150 44 -14 11 -4 10 39 -5 32 -11 70 -19 85 -17 22 2 7 14 -84
66 -105 60 -112 74 -14 27z"/>
<path d="M3868 3624 c-66 -35 -62 -114 6 -114 23 0 86 59 86 80 0 23 -26 50
-48 50 -9 -1 -29 -7 -44 -16z"/>
<path d="M1036 3601 c-17 -19 -17 -20 2 -30 28 -15 52 13 30 35 -13 13 -16 12
-32 -5z"/>
<path d="M1120 3544 c-11 -12 -10 -18 3 -32 16 -15 18 -15 33 0 19 18 12 48
-9 48 -8 0 -20 -7 -27 -16z"/>
<path d="M1466 1384 c-7 -19 1 -34 19 -34 21 0 28 19 15 35 -16 19 -26 19 -34
-1z"/>
<path d="M1399 1304 c-11 -14 -10 -18 5 -29 33 -24 62 5 34 33 -16 16 -23 15
-39 -4z"/>
<path d="M3333 1272 c-8 -5 -7 -13 6 -30 15 -21 19 -22 30 -8 24 29 -4 59 -36
38z"/>
<path d="M1656 1211 c-27 -29 -28 -29 -8 -40 12 -6 23 -8 25 -4 7 12 19 73 15
73 -2 0 -17 -13 -32 -29z"/>
<path d="M3112 1154 c-26 -18 -28 -53 -7 -94 17 -34 46 -45 75 -30 24 13 26
49 5 90 -21 41 -47 53 -73 34z"/>
<path d="M2326 1018 c-19 -27 -21 -78 -3 -102 9 -12 23 -17 42 -14 25 2 31 9
39 41 13 52 -2 91 -36 95 -18 2 -31 -4 -42 -20z"/>
<path d="M3116 782 c-2 -4 -1 -14 4 -21 10 -17 31 -5 23 14 -6 16 -19 20 -27
7z"/>
<path d="M1983 725 c-3 -9 -3 -18 0 -21 9 -9 27 6 27 22 0 19 -19 18 -27 -1z"/>
<path d="M2937 713 c-13 -12 -7 -33 8 -33 8 0 15 9 15 20 0 20 -11 26 -23 13z"/>
<path d="M2743 675 c-3 -9 -3 -18 0 -21 9 -9 27 6 27 22 0 19 -19 18 -27 -1z"/>
</g>
</svg>
