<?xml version="1.0" standalone="no"?>
<!DOCTYPE svg PUBLIC "-//W3C//DTD SVG 20010904//EN"
 "http://www.w3.org/TR/2001/REC-SVG-20010904/DTD/svg10.dtd">
<svg version="1.0" xmlns="http://www.w3.org/2000/svg"
 width="577.000000pt" height="433.000000pt" viewBox="0 0 577.000000 433.000000"
 preserveAspectRatio="xMidYMid meet">

<g transform="translate(0.000000,433.000000) scale(0.100000,-0.100000)"
fill="#000000" stroke="none">
<path d="M1728 3073 c6 -2 12 -13 12 -23 0 -18 -27 -131 -32 -135 -2 -1 -25
-6 -52 -10 l-49 -7 61 69 c34 37 62 72 62 78 -1 5 -25 -17 -54 -49 -29 -33
-55 -55 -58 -50 -3 5 -3 4 -2 -3 2 -7 -2 -15 -8 -19 -8 -5 -10 15 -6 72 3 43
3 71 1 61 -3 -9 -9 -14 -15 -11 -7 4 -8 -8 -5 -35 7 -67 -9 -131 -45 -168 -17
-18 -35 -30 -40 -27 -4 3 -8 0 -8 -6 0 -7 -9 -24 -21 -38 l-21 -27 9 40 c10
50 11 261 1 271 -15 15 -22 -8 -24 -74 -1 -42 0 -50 3 -19 5 63 23 51 23 -16
0 -113 -29 -228 -68 -275 l-28 -34 3 74 c2 86 -4 73 -16 -32 l-8 -75 -2 73
c-1 88 -25 208 -54 278 -18 43 -25 50 -41 44 -14 -4 -16 -9 -8 -14 7 -4 12
-15 12 -25 0 -32 34 -167 38 -150 1 10 -4 45 -13 79 -17 64 -14 94 5 46 23
-62 41 -167 42 -252 1 -82 -2 -97 -28 -148 -22 -44 -30 -53 -35 -39 -4 10 -28
86 -54 168 -44 140 -90 244 -102 231 -3 -3 4 -20 15 -38 34 -55 122 -333 121
-380 -1 -43 -2 -43 -9 11 -5 29 -14 58 -21 65 -9 9 -10 7 -4 -9 18 -47 18
-122 -1 -151 l-19 -28 -6 69 -5 70 -2 -77 c-2 -58 -7 -86 -22 -110 l-20 -33
-1 80 c-1 54 -4 70 -8 50 l-7 -30 -8 40 c-12 66 -139 290 -157 279 -5 -3 -2
-12 6 -20 28 -29 98 -155 122 -222 14 -37 27 -97 30 -134 6 -63 4 -70 -28
-120 l-34 -53 -6 50 -6 50 -2 -55 c-4 -92 -17 -105 -26 -25 -8 82 -22 151 -24
118 -1 -12 4 -55 9 -97 7 -48 8 -86 1 -108 -8 -28 -9 -21 -10 47 -1 99 -11
136 -68 252 -39 82 -44 98 -38 135 4 24 13 53 21 65 11 18 11 22 -1 27 -8 3
-14 2 -13 -2 1 -4 -3 -23 -10 -43 -7 -20 -14 -74 -16 -120 -2 -46 -9 -97 -16
-114 -7 -16 -12 -43 -12 -60 1 -22 -2 -26 -9 -15 -8 12 -9 11 -7 -4 6 -38 28
-29 29 11 0 21 4 47 9 58 7 16 9 11 9 -21 1 -53 11 -104 21 -104 4 0 5 24 4
53 -4 50 -4 51 8 20 7 -17 17 -35 22 -40 5 -5 6 -2 1 6 -4 7 -9 38 -11 68 -1
31 -8 61 -14 67 -9 8 -10 5 -5 -14 4 -14 10 -32 12 -40 3 -8 -1 -6 -8 5 -7 11
-14 39 -14 62 -2 37 0 40 11 25 8 -9 27 -51 43 -93 54 -138 50 -279 -10 -364
-12 -16 -19 -22 -16 -13 3 9 9 34 12 55 5 28 4 34 -4 23 -6 -8 -11 -10 -11 -5
-1 6 -5 0 -10 -12 -7 -16 -18 -23 -37 -23 -29 0 -133 -29 -218 -61 -27 -10
-59 -17 -70 -14 -80 16 -81 17 -60 25 17 7 15 9 -10 9 -22 1 -26 4 -16 10 12
8 8 11 -14 17 -26 6 -27 8 -10 15 20 7 20 8 0 9 -11 0 -31 7 -45 15 l-25 15
30 -6 c27 -6 28 -5 12 8 -17 13 -16 15 17 31 53 25 167 46 283 54 l102 6 -26
46 c-18 31 -29 69 -34 116 l-7 70 1 -67 2 -68 -39 39 c-37 37 -39 42 -37 100
0 34 7 76 15 94 34 81 128 202 149 192 6 -4 3 1 -8 9 -17 15 -20 15 -28 -1 -5
-10 -20 -29 -32 -43 -53 -59 -103 -160 -110 -221 l-7 -61 -48 47 -47 46 18 65
c22 80 61 167 95 211 26 34 19 46 -9 16 -23 -27 -84 -153 -92 -193 -14 -66
-24 -84 -40 -70 -8 7 -12 16 -9 21 6 11 -36 83 -43 75 -3 -3 5 -22 18 -43 l23
-38 -29 22 c-68 48 -85 90 -76 183 l6 65 105 6 105 5 -125 2 c-69 1 -120 -2
-115 -6 6 -4 10 -46 10 -94 0 -90 -7 -97 -30 -32 -10 28 -14 33 -15 17 0 -30
-11 -29 -41 3 -36 39 -99 87 -99 76 0 -5 39 -43 87 -83 l87 -74 -70 -6 c-69
-5 -85 0 -97 35 -2 6 -8 8 -12 4 -5 -5 0 -18 11 -30 16 -18 16 -20 2 -15 -30
11 -32 -36 -7 -198 6 -38 13 -77 16 -85 3 -8 7 -25 9 -36 1 -12 9 -35 18 -52
27 -53 137 -192 173 -220 20 -15 51 -40 69 -55 21 -18 38 -26 46 -21 7 5 29 7
48 6 31 -2 33 -1 18 11 -16 13 -16 15 8 25 14 7 33 12 42 12 9 1 35 8 57 16
31 12 135 35 135 30 0 -1 -11 -34 -25 -75 -22 -64 -24 -77 -12 -88 12 -12 18
-11 43 10 33 28 89 44 99 28 3 -6 20 -11 38 -11 53 0 15 21 -42 23 l-52 2 28
23 c40 33 185 122 199 122 8 0 5 -13 -7 -37 -10 -21 -19 -51 -18 -68 0 -23 4
-18 15 25 14 53 47 101 60 88 3 -4 -6 -32 -21 -63 -16 -31 -30 -79 -33 -106
l-5 -49 -36 29 c-20 16 -43 41 -50 55 -14 25 -41 43 -41 27 0 -4 22 -31 50
-60 28 -29 50 -53 50 -54 0 -1 -23 -2 -50 -2 -28 0 -50 2 -50 5 0 9 -235 -10
-238 -19 -2 -5 -22 -7 -45 -5 -37 4 -39 3 -17 -6 14 -6 37 -10 53 -7 15 2 27
1 27 -2 0 -3 24 -7 54 -9 38 -2 58 1 69 12 9 9 26 15 39 15 17 -1 18 -3 5 -6
-22 -6 -12 -23 14 -23 11 0 18 4 15 9 -9 13 19 21 75 21 57 0 92 -15 133 -59
l30 -31 -30 0 c-22 0 -26 3 -14 10 11 7 5 10 -25 10 -22 0 -47 5 -55 11 -12 8
-8 10 17 7 18 -3 29 0 26 5 -3 5 -25 7 -49 3 -24 -3 -46 -1 -49 4 -3 6 5 10
19 10 14 0 26 5 26 10 0 10 -42 4 -68 -10 -16 -8 55 -41 128 -60 25 -7 53 -19
62 -27 9 -8 22 -12 30 -7 7 4 10 3 5 -1 -10 -12 22 -45 45 -45 16 0 17 3 5 32
-7 18 -18 33 -24 33 -6 0 -15 4 -20 9 -5 6 -2 6 6 1 11 -6 13 -4 8 9 -4 10 -7
21 -7 24 0 4 -5 0 -10 -8 -8 -12 -17 -7 -55 30 -49 48 -51 59 -34 142 l12 53
20 -72 c18 -70 37 -96 37 -53 0 11 -3 20 -7 20 -5 0 -9 45 -11 100 l-3 100 36
0 c35 0 105 23 105 35 0 3 -5 3 -12 -1 -7 -4 -8 -3 -4 5 4 7 13 10 19 8 7 -3
27 7 45 20 18 13 48 27 67 30 20 3 32 10 28 16 -4 6 3 8 19 4 24 -6 69 18 90
47 12 17 4 16 -58 -9 -32 -14 -72 -25 -89 -25 -33 0 -73 -19 -45 -21 10 0 8
-3 -5 -8 -11 -5 -63 -9 -115 -10 -106 -2 -148 -11 -211 -45 -24 -13 -56 -27
-72 -30 l-27 -6 37 59 c26 42 48 64 73 75 32 14 177 41 260 49 30 3 29 4 -10
5 -51 2 -200 -21 -245 -37 l-30 -11 24 19 c28 21 86 41 122 41 13 0 44 6 69
14 65 19 173 29 241 21 63 -7 75 -20 33 -35 -14 -6 -23 -14 -19 -19 3 -6 -3
-14 -12 -20 -27 -16 3 -13 43 4 19 8 38 14 42 14 23 -4 34 5 53 42 11 23 37
60 58 82 54 59 61 77 60 149 0 34 7 86 15 113 19 59 21 89 6 65 -6 -9 -10 -10
-10 -3 0 6 5 15 10 18 24 15 6 165 -34 274 -9 24 -16 63 -16 87 0 36 -3 44
-17 43 -11 0 -13 -3 -5 -6z m29 -145 c-3 -8 -6 -5 -6 6 -1 11 2 17 5 13 3 -3
4 -12 1 -19z m-41 -54 c-3 -8 -2 -12 4 -9 6 3 10 0 10 -7 1 -8 7 -5 17 7 13
16 14 17 9 3 -18 -52 -18 -54 -1 -33 16 19 16 18 10 -20 -5 -31 -4 -37 5 -25
10 13 11 13 7 0 -3 -11 -21 -16 -68 -18 -35 -2 -104 -14 -154 -28 -115 -31
-118 -30 -62 7 26 17 47 35 47 40 0 5 17 17 38 28 20 11 30 20 22 21 -12 0
-11 4 4 15 23 17 14 20 -15 4 -11 -5 -17 -15 -13 -22 5 -9 4 -9 -6 0 -19 18 3
41 43 46 80 10 109 8 103 -9z m-182 -69 c-9 -14 -26 -31 -38 -37 -14 -7 -10 1
13 26 41 42 48 45 25 11z m238 -61 c4 -3 1 -22 -7 -43 -7 -22 -11 -42 -8 -45
4 -3 -38 -6 -93 -6 -89 0 -110 -4 -211 -39 -62 -21 -109 -33 -107 -27 3 7 21
18 40 25 20 7 33 15 31 18 -3 2 -15 -1 -27 -7 l-22 -12 18 32 c11 17 26 37 34
45 13 11 172 57 240 68 25 5 99 -2 112 -9z m-34 -123 c2 -6 9 -8 15 -4 8 5 8
2 0 -9 -7 -8 -10 -18 -6 -21 3 -4 0 -13 -7 -22 -7 -9 -10 -18 -6 -22 3 -4 -8
-22 -26 -40 -17 -18 -27 -33 -22 -33 17 0 54 45 59 70 3 13 12 31 22 39 16 15
16 15 4 -2 -8 -9 -11 -20 -8 -24 9 -8 -17 -54 -46 -81 -24 -23 -28 -23 -103
-13 -42 6 -100 8 -128 5 -50 -6 -236 -57 -259 -71 -13 -7 4 17 37 55 11 12 21
30 22 40 5 35 71 77 170 109 55 18 110 34 124 37 42 8 154 -1 158 -13z m-1303
-113 c6 -6 -1 -7 -20 -3 -26 5 -27 4 -7 -4 12 -6 28 -8 35 -5 7 2 35 -16 62
-41 l50 -46 -70 8 c-38 4 -101 7 -140 5 -69 -2 -70 -2 -93 31 -29 44 -29 63 0
43 33 -23 44 -19 17 5 -13 11 -19 18 -13 15 6 -3 24 -1 40 4 33 10 124 3 139
-12z m1331 -46 c0 -10 -8 -19 -18 -19 -15 -2 -16 1 -5 18 15 24 23 24 23 1z
m-93 -27 c16 -7 16 -10 4 -24 -8 -9 -13 -26 -11 -38 3 -16 -4 -27 -24 -37 -15
-9 -20 -15 -12 -15 8 -1 35 11 59 24 24 14 45 24 47 22 2 -2 -25 -21 -61 -42
-74 -43 -99 -67 -36 -36 23 12 41 17 41 12 0 -5 -14 -17 -31 -25 -25 -13 -40
-14 -70 -6 -50 14 -192 14 -254 0 -27 -6 -71 -15 -96 -20 -26 -5 -63 -13 -83
-18 -54 -15 -44 -4 27 28 34 16 55 29 47 30 -9 0 -32 -9 -53 -19 -20 -10 -37
-16 -37 -12 0 10 87 81 99 81 6 0 11 5 11 11 0 6 -16 1 -36 -12 -34 -21 -35
-21 -23 -2 6 11 26 27 43 37 29 15 167 58 226 69 34 7 201 1 223 -8z m-1419
-13 c3 -5 -1 -9 -9 -9 -8 0 -12 4 -9 9 3 4 7 8 9 8 2 0 6 -4 9 -8z m1446 -17
c-17 -21 -1 -19 24 3 20 16 20 16 7 -1 -20 -25 -50 -41 -47 -24 2 15 15 37 23
37 3 0 0 -7 -7 -15z m-1207 -5 c78 -11 86 -16 149 -84 l46 -51 -131 0 c-106 0
-143 -4 -187 -20 l-55 -20 -33 37 c-19 21 -31 42 -27 48 3 5 3 16 -2 23 -9 14
-12 57 -3 57 3 0 12 -6 19 -12 10 -11 11 -10 6 4 -4 11 0 18 12 21 32 8 136 7
206 -3z m1267 6 c0 -2 -8 -10 -17 -17 -16 -13 -17 -12 -4 4 13 16 21 21 21 13z
m-1475 -166 c10 -11 16 -20 13 -20 -3 0 -13 9 -23 20 -10 11 -16 20 -13 20 3
0 13 -9 23 -20z m372 8 c59 -11 69 -16 110 -62 44 -50 45 -51 22 -57 -13 -4
-49 -7 -80 -8 -69 -1 -205 -26 -254 -47 -28 -11 -44 -12 -75 -4 -22 6 -42 15
-45 20 -8 13 1 13 26 0 10 -6 19 -7 19 -2 0 4 -15 14 -34 20 -19 7 -40 20 -48
29 -12 15 -11 15 9 5 39 -21 73 -32 73 -23 0 4 -15 12 -32 18 -23 6 -32 14
-30 26 2 9 -2 17 -8 17 -6 0 -8 -4 -5 -10 7 -11 -8 -14 -18 -3 -7 6 38 52 51
54 4 0 39 8 77 19 83 22 155 24 242 8z m698 -164 c-19 -8 -50 -12 -85 -9 -39
3 -48 2 -30 -4 22 -8 19 -9 -20 -11 -25 -1 -37 -4 -27 -7 26 -7 21 -23 -8 -23
-14 0 -25 5 -25 11 0 8 -15 10 -47 6 l-48 -6 38 20 c51 27 105 37 202 37 76 0
79 0 50 -14z m-220 -50 c28 -11 -4 -24 -55 -23 l-45 1 40 13 c22 8 41 14 42
14 1 1 9 -2 18 -5z m-112 -11 c-24 -9 -13 -23 20 -24 31 -1 30 -1 -13 -14 -25
-8 -56 -17 -69 -21 -24 -7 -24 -7 -8 16 17 25 54 50 72 49 6 0 4 -3 -2 -6z
m-137 -86 c-8 -19 -12 -37 -10 -40 2 -2 -5 -24 -16 -48 -11 -24 -20 -36 -20
-27 0 21 51 160 57 154 2 -2 -2 -20 -11 -39z m71 7 c-3 -3 -12 -4 -19 -1 -8 3
-5 6 6 6 11 1 17 -2 13 -5z m251 -64 c1 -23 0 -23 -8 -5 -5 11 -8 34 -8 50 0
29 0 29 8 5 4 -14 8 -36 8 -50z m-268 15 c-30 -17 -40 -18 -40 -6 0 8 22 16
55 19 6 1 -1 -5 -15 -13z m-97 -132 c-7 -2 -21 -2 -30 0 -10 3 -4 5 12 5 17 0
24 -2 18 -5z m442 -123 c3 -5 1 -10 -4 -10 -6 0 -11 5 -11 10 0 6 2 10 4 10 3
0 8 -4 11 -10z"/>
<path d="M1599 2800 l-24 -20 35 17 c44 20 47 23 28 23 -9 0 -26 -9 -39 -20z"/>
<path d="M1505 2694 c-33 -13 -67 -32 -75 -40 -9 -9 8 -4 40 11 30 15 72 33
95 40 22 7 31 13 20 14 -11 0 -47 -11 -80 -25z"/>
<path d="M1665 2700 c-25 -11 1 -11 35 0 20 6 21 8 5 8 -11 0 -29 -3 -40 -8z"/>
<path d="M1520 2670 c-8 -5 -10 -10 -5 -10 6 0 17 5 25 10 8 5 11 10 5 10 -5
0 -17 -5 -25 -10z"/>
<path d="M1623 2600 c-32 -13 -28 -21 5 -10 15 5 36 11 47 13 16 4 15 5 -5 5
-14 0 -35 -3 -47 -8z"/>
<path d="M1583 2553 c9 -2 25 -2 35 0 9 3 1 5 -18 5 -19 0 -27 -2 -17 -5z"/>
<path d="M1331 2519 c-24 -17 -40 -33 -37 -36 3 -3 18 5 34 18 16 13 38 29 48
36 11 6 14 12 8 12 -6 1 -30 -13 -53 -30z"/>
<path d="M1440 2490 c-11 -7 -5 -8 20 -4 43 8 51 14 19 14 -13 0 -31 -5 -39
-10z"/>
<path d="M1308 2470 c-38 -20 -57 -40 -39 -40 5 0 13 5 16 10 3 6 23 19 43 30
20 10 33 19 27 19 -5 0 -27 -9 -47 -19z"/>
<path d="M1545 2429 c-22 -5 -44 -14 -49 -19 -13 -13 0 -13 25 0 10 6 40 11
65 12 30 0 41 4 33 9 -16 10 -21 10 -74 -2z"/>
<path d="M1485 2350 l-20 -9 20 1 c11 0 34 4 50 8 l30 8 -30 0 c-16 0 -39 -3
-50 -8z"/>
<path d="M1330 2340 c-8 -5 -10 -10 -5 -10 6 0 17 5 25 10 8 5 11 10 5 10 -5
0 -17 -5 -25 -10z"/>
<path d="M1305 2305 c-25 -12 -26 -14 -5 -9 14 4 29 10 35 15 12 12 5 11 -30
-6z"/>
<path d="M250 2351 c0 -5 7 -15 17 -22 15 -13 15 -12 4 9 -12 23 -21 28 -21
13z"/>
<path d="M403 2340 c-47 -21 -60 -36 -15 -18 15 6 50 17 77 24 46 11 47 12 15
12 -19 1 -54 -8 -77 -18z"/>
<path d="M515 2340 c-3 -5 1 -10 9 -10 9 0 16 5 16 10 0 6 -4 10 -9 10 -6 0
-13 -4 -16 -10z"/>
<path d="M260 2302 c0 -5 7 -15 15 -22 8 -7 15 -8 15 -2 0 5 -7 15 -15 22 -8
7 -15 8 -15 2z"/>
<path d="M340 2280 c-8 -5 -12 -11 -10 -14 3 -2 14 2 24 10 22 15 10 19 -14 4z"/>
<path d="M560 2230 c-10 -7 1 -8 35 -4 28 4 52 8 54 10 10 9 -75 3 -89 -6z"/>
<path d="M675 2180 c-18 -8 -18 -9 5 -8 14 0 36 4 50 8 24 8 24 8 -5 8 -16 0
-39 -3 -50 -8z"/>
<path d="M483 2120 c-13 -5 -23 -11 -23 -14 0 -5 72 13 79 20 8 7 -34 3 -56
-6z"/>
<path d="M1558 3063 c7 -3 16 -2 19 1 4 3 -2 6 -13 5 -11 0 -14 -3 -6 -6z"/>
<path d="M1648 3044 c5 -26 5 -26 21 -7 9 12 23 23 31 26 8 3 -1 6 -21 6 -34
1 -36 -1 -31 -25z"/>
<path d="M1551 2988 c1 -72 5 -68 12 10 2 28 0 52 -4 52 -5 0 -9 -28 -8 -62z"/>
<path d="M1503 2985 c0 -27 2 -38 4 -22 2 15 2 37 0 50 -2 12 -4 0 -4 -28z"/>
<path d="M1369 3014 c-3 -22 3 -60 11 -68 6 -5 7 7 3 30 -6 39 -12 55 -14 38z"/>
<path d="M1933 2963 c-9 -3 -13 -25 -13 -63 0 -49 3 -58 20 -63 19 -5 20 -14
20 -145 0 -132 -1 -140 -21 -145 -18 -5 -20 -12 -17 -64 l3 -58 195 0 c168 0
199 2 225 18 l30 17 -30 -6 c-16 -4 -32 -7 -35 -6 -3 0 -85 0 -182 1 l-178 1
0 43 c0 31 5 46 20 57 18 13 20 26 20 158 0 137 -1 144 -21 149 -17 5 -20 12
-18 54 3 52 1 59 -18 52z"/>
<path d="M2728 2963 c12 -2 32 -2 45 0 12 2 2 4 -23 4 -25 0 -35 -2 -22 -4z"/>
<path d="M4273 2950 c-6 -22 -22 -27 -25 -7 0 6 -4 -10 -8 -38 l-7 -50 -1 53
c-1 28 -5 52 -10 52 -4 0 -5 -21 -3 -47 2 -36 -1 -50 -15 -60 -17 -12 -16 -13
7 -13 14 0 31 6 38 13 11 10 14 10 18 0 3 -7 10 -13 17 -13 16 0 26 -73 26
-197 0 -87 -1 -93 -20 -93 -19 0 -21 -5 -18 -62 l3 -63 210 -3 c212 -3 255 0
255 18 0 6 -82 10 -219 10 l-218 0 -6 37 c-5 29 -2 41 13 55 18 17 20 32 20
146 0 138 -5 172 -25 172 -10 0 -12 13 -8 55 4 40 2 55 -7 55 -6 0 -14 -9 -17
-20z"/>
<path d="M5028 2963 c12 -2 32 -2 45 0 12 2 2 4 -23 4 -25 0 -35 -2 -22 -4z"/>
<path d="M2818 2953 c7 -3 16 -2 19 1 4 3 -2 6 -13 5 -11 0 -14 -3 -6 -6z"/>
<path d="M3040 2900 c0 -47 3 -60 15 -60 13 0 15 -23 15 -145 0 -124 -2 -145
-15 -145 -13 0 -15 -11 -13 -62 l3 -63 134 -3 c101 -2 137 1 143 10 8 10 11
10 15 1 3 -9 37 -13 119 -13 l114 0 -2 63 c-1 56 -2 57 -5 15 l-4 -48 -95 0
c-67 0 -96 4 -99 13 -2 6 -7 47 -10 89 -8 94 -29 128 -66 111 -24 -10 -24 -10
8 -17 41 -9 45 -22 37 -117 l-7 -79 -126 0 -126 0 -12 27 c-18 38 -16 49 12
67 25 16 25 18 25 166 0 127 -2 150 -15 150 -11 0 -15 12 -15 50 0 38 -4 50
-15 50 -12 0 -15 -13 -15 -60z"/>
<path d="M3611 2900 c2 -42 6 -60 16 -60 10 0 13 -31 13 -145 0 -124 -2 -145
-16 -145 -12 0 -15 -12 -13 -65 l2 -65 108 0 c106 0 109 1 115 23 3 13 4 41 1
63 -3 38 -4 37 -5 -8 l-2 -48 -99 0 -99 0 -4 36 c-3 29 1 42 19 60 22 22 23
30 23 169 0 141 -1 145 -21 145 -19 0 -21 5 -17 50 2 36 -1 50 -10 50 -10 0
-12 -16 -11 -60z"/>
<path d="M3870 2930 c12 -16 24 -30 26 -30 3 0 -4 14 -16 30 -12 17 -24 30
-26 30 -3 0 4 -13 16 -30z"/>
<path d="M4000 2901 c0 -43 4 -60 15 -65 8 -3 15 -17 15 -31 0 -15 4 -24 10
-20 17 10 12 75 -5 75 -11 0 -15 12 -15 50 0 28 -4 50 -10 50 -6 0 -10 -26
-10 -59z"/>
<path d="M1134 2928 l-19 -23 23 19 c21 18 27 26 19 26 -2 0 -12 -10 -23 -22z"/>
<path d="M1216 2915 c4 -22 11 -47 16 -55 6 -10 7 -1 3 25 -4 22 -11 47 -16
55 -6 10 -7 1 -3 -25z"/>
<path d="M2579 2929 l-24 -20 30 17 c39 24 40 24 28 24 -6 0 -21 -9 -34 -21z"/>
<path d="M2851 2946 c2 -2 15 -9 29 -15 24 -11 24 -11 6 3 -16 13 -49 24 -35
12z"/>
<path d="M1521 2924 c0 -11 3 -14 6 -6 3 7 2 16 -1 19 -3 4 -6 -2 -5 -13z"/>
<path d="M2341 2937 c2 -2 18 -11 34 -21 l30 -17 -24 20 c-13 12 -28 21 -34
21 -6 0 -8 -1 -6 -3z"/>
<path d="M4847 2902 c-47 -48 -67 -111 -67 -207 0 -193 94 -283 285 -273 65 3
91 10 127 31 41 24 78 64 78 84 0 4 -9 -5 -20 -21 -35 -55 -85 -76 -176 -76
-93 0 -155 18 -198 58 -62 58 -87 169 -66 294 11 63 18 78 50 111 21 20 35 37
31 37 -4 0 -24 -17 -44 -38z"/>
<path d="M3497 2910 c7 -8 16 -27 22 -40 6 -17 10 -19 10 -8 1 9 -9 27 -21 40
-13 13 -18 17 -11 8z"/>
<path d="M5200 2927 c0 -2 15 -16 33 -33 l32 -29 -29 33 c-28 30 -36 37 -36
29z"/>
<path d="M2930 2893 c13 -18 25 -33 27 -33 8 0 -17 38 -33 51 -11 9 -9 2 6
-18z"/>
<path d="M2515 2866 c-14 -24 -30 -72 -36 -107 -11 -67 -3 -165 14 -176 6 -4
8 2 4 17 -10 40 11 218 32 266 25 56 19 56 -14 0z"/>
<path d="M1146 2887 c3 -10 9 -15 12 -12 3 3 0 11 -7 18 -10 9 -11 8 -5 -6z"/>
<path d="M3925 2846 c10 -14 19 -26 22 -26 7 0 -17 39 -28 46 -6 3 -3 -5 6
-20z"/>
<path d="M2168 2853 c-15 -4 -18 -16 -18 -64 0 -58 0 -59 28 -58 23 2 24 2 5
6 -20 4 -23 10 -23 54 0 49 1 50 28 47 25 -3 27 -6 27 -50 0 -37 3 -44 13 -35
9 7 11 22 7 46 -11 56 -23 66 -67 54z"/>
<path d="M2713 2843 c-13 -8 -23 -20 -23 -25 0 -5 7 -2 16 6 21 22 51 20 64
-3 5 -11 10 -70 10 -132 0 -92 -3 -116 -17 -133 -18 -21 -18 -21 5 -2 21 18
22 27 22 140 0 94 -4 127 -16 144 -18 26 -31 27 -61 5z"/>
<path d="M3280 2850 c-12 -8 -10 -10 11 -10 14 0 30 -5 37 -12 15 -15 15 -61
0 -76 -8 -8 -8 -12 -1 -12 28 0 31 79 5 103 -21 19 -31 21 -52 7z"/>
<path d="M4510 2850 c-11 -7 -6 -10 22 -10 l37 0 3 -47 3 -48 79 0 c55 0 81 4
84 13 3 9 -15 12 -67 12 l-71 0 0 45 0 45 -37 0 c-21 0 -45 -5 -53 -10z"/>
<path d="M5024 2845 c-17 -13 -17 -14 -1 -9 10 4 28 1 40 -5 21 -11 22 -16 17
-147 -5 -130 -4 -134 13 -113 14 17 17 41 17 120 0 142 -30 197 -86 154z"/>
<path d="M3532 2810 c0 -14 2 -19 5 -12 2 6 2 18 0 25 -3 6 -5 1 -5 -13z"/>
<path d="M4994 2695 c0 -71 1 -99 3 -62 2 37 2 96 0 130 -2 34 -3 4 -3 -68z"/>
<path d="M5281 2804 c0 -11 3 -14 6 -6 3 7 2 16 -1 19 -3 4 -6 -2 -5 -13z"/>
<path d="M1060 2807 c0 -18 33 -137 37 -133 6 6 -16 105 -28 126 -5 8 -9 11
-9 7z"/>
<path d="M2411 2794 c0 -11 3 -14 6 -6 3 7 2 16 -1 19 -3 4 -6 -2 -5 -13z"/>
<path d="M1402 2780 c0 -14 2 -19 5 -12 2 6 2 18 0 25 -3 6 -5 1 -5 -13z"/>
<path d="M2981 2784 c0 -11 3 -14 6 -6 3 7 2 16 -1 19 -3 4 -6 -2 -5 -13z"/>
<path d="M2392 2749 c-7 -11 -31 -29 -53 -38 -30 -14 -36 -20 -24 -25 25 -9
43 -7 26 3 -11 7 -10 10 6 15 22 7 69 53 62 61 -3 2 -10 -5 -17 -16z"/>
<path d="M5292 2750 c0 -14 2 -19 5 -12 2 6 2 18 0 25 -3 6 -5 1 -5 -13z"/>
<path d="M1230 2730 c5 -18 12 -35 16 -39 9 -9 -7 53 -17 63 -5 5 -4 -5 1 -24z"/>
<path d="M4032 2740 c0 -14 2 -19 5 -12 2 6 2 18 0 25 -3 6 -5 1 -5 -13z"/>
<path d="M2993 2700 c0 -30 2 -43 4 -27 2 15 2 39 0 55 -2 15 -4 2 -4 -28z"/>
<path d="M1010 2730 c0 -5 5 -10 11 -10 5 0 7 5 4 10 -3 6 -8 10 -11 10 -2 0
-4 -4 -4 -10z"/>
<path d="M3278 2733 c6 -2 18 -2 25 0 6 3 1 5 -13 5 -14 0 -19 -2 -12 -5z"/>
<path d="M3801 2722 c-1 -13 3 -20 9 -17 6 3 14 -4 20 -17 5 -13 45 -77 89
-143 l79 -120 78 -3 c84 -3 124 3 124 18 0 5 -46 11 -102 12 -98 3 -103 4
-106 26 -2 12 -12 27 -23 32 -10 6 -19 19 -19 30 0 11 -9 24 -20 30 -11 6 -18
15 -15 20 5 9 -47 96 -65 110 -4 3 -10 14 -14 25 -5 15 -9 16 -15 6 -7 -11 -9
-11 -14 0 -3 8 -6 4 -6 -9z"/>
<path d="M358 2723 c7 -3 16 -2 19 1 4 3 -2 6 -13 5 -11 0 -14 -3 -6 -6z"/>
<path d="M283 2713 c9 -2 25 -2 35 0 9 3 1 5 -18 5 -19 0 -27 -2 -17 -5z"/>
<path d="M611 2674 c-17 -26 -31 -52 -31 -58 0 -6 16 13 36 42 20 30 34 56 31
58 -2 3 -19 -16 -36 -42z"/>
<path d="M3480 2694 c-32 -32 -17 -31 18 1 15 14 22 25 17 24 -6 0 -21 -11
-35 -25z"/>
<path d="M4021 2703 c7 -10 15 -20 16 -22 2 -2 3 3 3 11 0 9 -7 19 -16 22 -15
6 -15 4 -3 -11z"/>
<path d="M371 2684 c0 -11 3 -14 6 -6 3 7 2 16 -1 19 -3 4 -6 -2 -5 -13z"/>
<path d="M4510 2670 c-8 -5 -10 -10 -5 -10 6 0 21 -3 34 -7 19 -5 22 -3 16 8
-6 10 -5 11 3 4 6 -5 12 -36 13 -68 2 -47 5 -55 15 -45 7 7 14 33 16 58 2 36
-1 45 -15 48 -9 2 -17 8 -17 13 0 12 -41 11 -60 -1z"/>
<path d="M230 2641 c0 -32 30 -70 55 -70 6 0 2 4 -7 10 -23 13 -23 33 -1 24
12 -4 7 5 -12 27 -17 18 -31 35 -32 37 -2 2 -3 -10 -3 -28z"/>
<path d="M1061 2665 c1 -19 18 -51 18 -35 0 8 -4 22 -9 30 -5 8 -9 11 -9 5z"/>
<path d="M2163 2663 c-14 -5 -19 -123 -5 -123 4 0 5 25 4 55 -4 55 -4 55 25
55 36 0 60 -39 43 -70 -14 -27 -12 -34 5 -20 18 15 19 43 4 73 -19 35 -42 44
-76 30z"/>
<path d="M3490 2666 c0 -2 8 -10 18 -17 15 -13 16 -12 3 4 -13 16 -21 21 -21
13z"/>
<path d="M5292 2640 c0 -14 2 -19 5 -12 2 6 2 18 0 25 -3 6 -5 1 -5 -13z"/>
<path d="M759 2623 c-13 -16 -12 -17 4 -4 9 7 17 15 17 17 0 8 -8 3 -21 -13z"/>
<path d="M1271 2598 c0 -27 4 -48 9 -48 11 0 11 21 0 65 -7 27 -8 25 -9 -17z"/>
<path d="M2416 2627 c3 -10 9 -15 12 -12 3 3 0 11 -7 18 -10 9 -11 8 -5 -6z"/>
<path d="M702 2584 c-31 -63 -23 -65 10 -4 15 28 24 50 19 50 -4 0 -17 -21
-29 -46z"/>
<path d="M935 2600 c4 -19 11 -39 15 -44 5 -5 5 8 0 29 -11 47 -25 61 -15 15z"/>
<path d="M536 2605 c-3 -9 -5 -31 -5 -48 1 -27 3 -24 9 13 8 48 6 61 -4 35z"/>
<path d="M2981 2604 c0 -11 3 -14 6 -6 3 7 2 16 -1 19 -3 4 -6 -2 -5 -13z"/>
<path d="M1168 2569 c2 -21 7 -41 11 -43 3 -2 5 13 3 35 -2 21 -7 41 -11 43
-3 2 -5 -13 -3 -35z"/>
<path d="M2690 2571 c0 -10 29 -36 34 -30 1 2 -6 12 -16 22 -10 9 -18 13 -18
8z"/>
<path d="M806 2537 c-15 -19 -26 -40 -26 -48 0 -9 5 -6 12 6 6 11 22 32 36 48
14 15 21 27 14 27 -6 0 -22 -15 -36 -33z"/>
<path d="M2513 2528 c39 -67 101 -100 197 -106 100 -6 162 11 212 56 21 19 38
38 38 44 0 5 -13 -6 -29 -25 -41 -46 -91 -61 -193 -55 -72 4 -92 9 -142 38
-32 18 -66 46 -75 61 -9 16 -20 29 -25 29 -4 0 3 -19 17 -42z"/>
<path d="M3800 2550 c0 -5 5 -10 11 -10 5 0 7 5 4 10 -3 6 -8 10 -11 10 -2 0
-4 -4 -4 -10z"/>
<path d="M3313 2500 c0 -25 2 -35 4 -22 2 12 2 32 0 45 -2 12 -4 2 -4 -23z"/>
<path d="M901 2500 c0 -8 4 -24 9 -35 l9 -20 0 20 c0 11 -4 27 -9 35 -9 13
-10 13 -9 0z"/>
<path d="M976 2480 c3 -19 10 -39 15 -44 13 -14 10 2 -7 44 l-14 35 6 -35z"/>
<path d="M610 2475 c0 -14 2 -25 4 -25 2 0 6 11 8 25 3 14 1 25 -3 25 -5 0 -9
-11 -9 -25z"/>
<path d="M2394 2478 l-19 -23 23 19 c21 18 27 26 19 26 -2 0 -12 -10 -23 -22z"/>
<path d="M636 2464 c-9 -22 -7 -92 2 -98 4 -2 7 22 7 55 0 32 0 59 -1 59 -1 0
-5 -7 -8 -16z"/>
<path d="M1046 2435 c10 -46 25 -66 18 -25 -4 19 -11 40 -16 45 -6 6 -7 -1 -2
-20z"/>
<path d="M812 2425 c0 -16 2 -22 5 -12 2 9 2 23 0 30 -3 6 -5 -1 -5 -18z"/>
<path d="M1146 2425 c4 -8 8 -15 10 -15 2 0 4 7 4 15 0 8 -4 15 -10 15 -5 0
-7 -7 -4 -15z"/>
<path d="M716 2375 c-3 -9 -6 -26 -5 -38 1 -16 4 -12 10 12 10 34 6 55 -5 26z"/>
<path d="M986 2367 c3 -10 9 -15 12 -12 3 3 0 11 -7 18 -10 9 -11 8 -5 -6z"/>
<path d="M2518 2293 c12 -2 30 -2 40 0 9 3 -1 5 -23 4 -22 0 -30 -2 -17 -4z"/>
<path d="M4208 2293 c12 -2 30 -2 40 0 9 3 -1 5 -23 4 -22 0 -30 -2 -17 -4z"/>
<path d="M4723 2293 c9 -2 25 -2 35 0 9 3 1 5 -18 5 -19 0 -27 -2 -17 -5z"/>
<path d="M5233 2293 c9 -2 25 -2 35 0 9 3 1 5 -18 5 -19 0 -27 -2 -17 -5z"/>
<path d="M1710 2203 c0 -47 3 -83 7 -80 3 4 11 3 17 -2 13 -11 106 -2 106 10
0 5 -23 9 -51 9 l-51 0 4 75 c3 66 1 75 -14 75 -16 0 -18 -11 -18 -87z"/>
<path d="M2221 2217 l-1 -78 -47 3 c-41 3 -48 6 -51 26 -4 23 -18 28 -40 13
-11 -7 -11 -9 2 -14 9 -4 16 -15 16 -26 0 -17 8 -19 68 -19 l67 0 -3 62 c-4
102 -9 116 -11 33z"/>
<path d="M2385 2267 c-76 -43 -114 -124 -115 -243 0 -133 63 -238 160 -264 71
-20 170 -15 226 10 51 22 104 66 104 84 0 6 -10 -2 -21 -17 -36 -47 -88 -67
-176 -67 -43 0 -95 5 -116 11 -43 12 -101 59 -122 99 -39 75 -37 255 3 324 10
17 40 43 67 58 28 15 46 28 40 28 -5 0 -28 -10 -50 -23z"/>
<path d="M2834 2265 c-9 -35 4 -92 21 -99 12 -4 15 -32 15 -153 0 -99 3 -143
10 -133 5 8 10 81 10 163 0 128 -2 147 -16 147 -13 0 -15 9 -12 50 3 54 -16
72 -28 25z"/>
<path d="M3481 2138 c-63 -229 -73 -258 -88 -258 -11 0 -13 -15 -11 -62 l3
-63 114 -3 c68 -2 118 1 124 7 7 7 15 7 23 0 7 -5 64 -8 140 -7 l129 3 1 60
c1 47 0 50 -3 13 l-4 -47 -126 -3 -125 -3 5 53 c4 41 3 52 -9 52 -10 0 -14
-13 -14 -50 l0 -50 -115 0 -115 0 0 44 c0 25 6 51 13 58 8 7 35 92 62 188 26
96 51 185 56 198 6 16 5 22 -5 22 -9 0 -28 -53 -55 -152z"/>
<path d="M4090 2275 c-14 -8 -20 -14 -15 -14 6 0 21 6 35 14 14 8 21 14 15 14
-5 0 -21 -6 -35 -14z"/>
<path d="M4308 2283 c7 -3 16 -2 19 1 4 3 -2 6 -13 5 -11 0 -14 -3 -6 -6z"/>
<path d="M4579 2261 c-47 -30 -88 -84 -93 -123 -2 -13 -7 -31 -11 -41 -13 -31
1 -180 20 -218 38 -75 94 -112 191 -127 88 -14 226 9 254 43 9 11 3 10 -21 -3
-23 -11 -64 -18 -125 -20 -150 -6 -219 25 -267 118 -27 52 -28 61 -25 160 5
139 21 171 112 222 17 9 26 17 20 18 -5 0 -31 -13 -55 -29z"/>
<path d="M4818 2283 c7 -3 16 -2 19 1 4 3 -2 6 -13 5 -11 0 -14 -3 -6 -6z"/>
<path d="M4880 2270 c8 -5 20 -10 25 -10 6 0 3 5 -5 10 -8 5 -19 10 -25 10 -5
0 -3 -5 5 -10z"/>
<path d="M5361 2276 c2 -2 15 -9 29 -15 24 -11 24 -11 6 3 -16 13 -49 24 -35
12z"/>
<path d="M3250 2266 c0 -2 7 -7 16 -10 8 -3 12 -2 9 4 -6 10 -25 14 -25 6z"/>
<path d="M2721 2225 c15 -16 31 -39 37 -50 6 -11 12 -14 12 -7 0 7 -17 30 -37
50 -21 21 -26 24 -12 7z"/>
<path d="M4017 2221 c-20 -22 -41 -59 -48 -83 -15 -57 -16 -211 0 -216 6 -2 8
-8 5 -13 -11 -19 46 -98 89 -123 81 -48 238 -51 327 -8 l35 17 3 93 3 93 -83
-3 -83 -3 -6 -37 c-3 -20 -12 -45 -20 -55 -13 -17 -13 -17 11 -2 18 12 26 27
28 53 l3 36 70 0 69 0 0 -85 c0 -84 -1 -86 -27 -97 -40 -17 -201 -22 -252 -8
-27 7 -62 28 -91 56 -40 37 -49 53 -59 101 -23 118 -4 242 47 296 14 15 23 27
20 27 -3 0 -22 -18 -41 -39z"/>
<path d="M4410 2253 c5 -2 10 -40 10 -84 l0 -79 -75 0 -75 0 0 33 c0 21 -8 41
-19 51 -18 16 -22 16 -48 2 -27 -15 -27 -16 -3 -11 36 7 51 -6 57 -54 l6 -41
84 0 84 0 -3 92 c-2 64 -7 92 -16 94 -7 1 -8 0 -2 -3z"/>
<path d="M5052 2227 c-45 -46 -64 -107 -65 -203 0 -45 4 -87 9 -95 5 -8 10
-23 11 -34 8 -45 58 -99 121 -127 60 -27 184 -27 244 0 41 18 108 77 108 94 0
5 -15 -8 -32 -28 -46 -52 -88 -67 -183 -65 -95 2 -171 33 -207 84 -12 18 -26
35 -32 39 -15 10 -20 191 -6 249 7 29 25 66 42 85 38 43 32 44 -10 1z"/>
<path d="M1413 2243 c9 -2 23 -2 30 0 6 3 -1 5 -18 5 -16 0 -22 -2 -12 -5z"/>
<path d="M5435 2230 c10 -11 20 -20 23 -20 3 0 -3 9 -13 20 -10 11 -20 20 -23
20 -3 0 3 -9 13 -20z"/>
<path d="M810 2191 c0 -17 4 -32 8 -35 4 -2 6 11 4 30 -5 42 -12 45 -12 5z"/>
<path d="M830 2200 c0 -5 5 -10 10 -10 6 0 10 5 10 10 0 6 -4 10 -10 10 -5 0
-10 -4 -10 -10z"/>
<path d="M5471 2180 c14 -31 19 -36 19 -24 0 6 -7 19 -16 30 -14 18 -14 18 -3
-6z"/>
<path d="M882 2145 c-1 -24 2 -46 7 -49 6 -4 8 8 5 31 -3 29 -2 33 5 18 5 -11
10 -35 10 -52 1 -36 21 -47 21 -12 0 33 -21 97 -34 102 -7 3 -12 -12 -14 -38z"/>
<path d="M1355 2180 c-25 -11 1 -11 35 0 20 6 21 8 5 8 -11 0 -29 -3 -40 -8z"/>
<path d="M1852 2181 c-11 -7 -11 -9 2 -14 14 -5 16 -28 16 -153 0 -129 2 -145
15 -134 12 10 15 41 15 161 0 135 -2 149 -17 149 -10 0 -24 -4 -31 -9z"/>
<path d="M2510 2170 l-25 -20 26 9 c15 5 32 5 42 0 15 -9 17 -28 17 -137 0
-88 -4 -132 -12 -142 -7 -8 0 -4 15 10 29 25 29 25 25 135 -2 91 -6 115 -23
137 -24 33 -32 34 -65 8z"/>
<path d="M3078 2183 c-15 -4 -18 -16 -18 -64 0 -58 0 -59 28 -58 23 2 24 2 5
6 -20 4 -23 10 -23 54 0 49 1 50 28 47 25 -3 27 -6 27 -50 0 -36 3 -44 13 -36
19 16 14 66 -8 88 -20 20 -22 21 -52 13z"/>
<path d="M4710 2169 c-23 -18 -23 -19 -2 -9 36 18 62 -3 62 -50 l0 -40 90 0
c53 0 90 4 90 10 0 6 -34 10 -81 10 l-81 0 6 31 c12 63 -33 90 -84 48z"/>
<path d="M5230 2175 l-25 -15 32 6 c45 9 53 -14 53 -147 0 -93 -3 -116 -17
-133 -18 -20 -18 -20 7 -4 24 15 25 20 28 135 2 109 1 122 -18 146 -25 31 -26
31 -60 12z"/>
<path d="M930 2170 c0 -8 5 -22 10 -30 9 -13 10 -13 10 0 0 8 -5 22 -10 30 -9
13 -10 13 -10 0z"/>
<path d="M1165 2160 c-4 -6 6 -7 27 -3 44 8 48 13 10 13 -17 0 -34 -4 -37 -10z"/>
<path d="M2484 2020 c0 -63 1 -89 3 -57 2 31 2 83 0 115 -2 31 -3 5 -3 -58z"/>
<path d="M3625 2120 c-3 -5 -1 -10 6 -10 7 0 9 -10 7 -25 -3 -14 -1 -25 3 -25
5 0 9 -11 9 -24 0 -14 5 -28 12 -32 8 -5 9 2 4 27 -4 19 -10 49 -13 67 -6 32
-16 41 -28 22z"/>
<path d="M4684 2020 c0 -63 1 -89 3 -57 2 31 2 83 0 115 -2 31 -3 5 -3 -58z"/>
<path d="M1054 2105 c-10 -8 -14 -14 -9 -15 15 0 40 18 34 24 -3 3 -14 -1 -25
-9z"/>
<path d="M3302 2079 c-7 -11 -28 -27 -47 -36 -31 -15 -39 -33 -14 -33 6 0 7 5
4 10 -3 6 0 10 8 10 15 0 73 57 66 64 -3 3 -10 -4 -17 -15z"/>
<path d="M874 2076 c1 -8 5 -18 8 -22 4 -3 5 1 4 10 -1 8 -5 18 -8 22 -4 3 -5
-1 -4 -10z"/>
<path d="M5502 2060 c0 -19 2 -27 5 -17 2 9 2 25 0 35 -3 9 -5 1 -5 -18z"/>
<path d="M788 2053 c12 -2 30 -2 40 0 9 3 -1 5 -23 4 -22 0 -30 -2 -17 -4z"/>
<path d="M763 2018 c-24 -4 -51 -12 -60 -18 -15 -9 -12 -10 12 -4 17 3 55 9
85 13 39 5 48 8 30 12 -14 3 -44 2 -67 -3z"/>
<path d="M5502 1990 c0 -19 2 -27 5 -17 2 9 2 25 0 35 -3 9 -5 1 -5 -18z"/>
<path d="M3073 1993 c-9 -3 -12 -25 -11 -66 l2 -62 3 58 c4 51 6 57 26 57 44
0 61 -45 36 -93 -12 -22 -12 -22 10 -3 54 49 1 137 -66 109z"/>
<path d="M4770 1936 c0 -23 -6 -48 -12 -56 -7 -8 0 -4 15 10 15 13 27 31 26
40 -3 36 2 39 69 43 63 3 63 3 -15 4 l-83 0 0 -41z"/>
<path d="M3326 1957 c3 -10 9 -15 12 -12 3 3 0 11 -7 18 -10 9 -11 8 -5 -6z"/>
<path d="M1098 1954 c-5 -4 -8 -16 -8 -28 0 -14 3 -17 11 -9 6 6 9 19 7 28 -1
9 -6 13 -10 9z"/>
<path d="M3591 1924 c-9 -7 -13 -16 -8 -20 4 -4 7 -2 7 4 0 16 72 16 88 0 9
-9 12 -8 12 5 0 9 -6 18 -12 19 -43 5 -72 2 -87 -8z"/>
<path d="M5201 1909 c-1 -19 26 -45 36 -35 3 3 1 6 -6 6 -6 0 -16 10 -21 23
-6 15 -9 17 -9 6z"/>
<path d="M4170 1901 c0 -10 29 -36 34 -30 1 2 -6 12 -16 22 -10 9 -18 13 -18
8z"/>
<path d="M733 1893 c-18 -2 -33 -9 -33 -14 0 -11 65 -2 90 12 16 9 5 10 -57 2z"/>
<path d="M3680 1879 c0 -5 5 -7 10 -4 6 3 10 8 10 11 0 2 -4 4 -10 4 -5 0 -10
-5 -10 -11z"/>
<path d="M3880 1880 c0 -5 5 -10 11 -10 5 0 7 5 4 10 -3 6 -8 10 -11 10 -2 0
-4 -4 -4 -10z"/>
<path d="M1825 1825 c-3 -30 -4 -59 0 -65 4 -6 63 -10 151 -10 l144 0 -2 63
c-1 56 -2 57 -5 15 l-4 -48 -130 0 -129 0 0 50 c0 67 -16 64 -25 -5z"/>
<path d="M2834 1835 c-4 -28 -2 -50 5 -59 6 -7 7 -16 3 -20 -4 -4 81 -6 188
-4 177 3 199 5 240 25 25 12 51 33 59 45 12 21 11 20 -15 -4 -42 -38 -78 -43
-276 -40 l-178 3 0 49 c0 62 -16 65 -26 5z"/>
<path d="M585 1831 c18 -19 35 -29 44 -26 9 3 12 3 8 -1 -12 -13 24 -30 54
-26 23 3 26 7 16 17 -7 7 -31 16 -53 19 -59 10 -80 28 -24 21 25 -4 56 -8 68
-11 13 -3 21 -1 18 4 -3 5 -29 12 -58 15 -29 4 -64 9 -78 13 l-25 7 30 -32z
m98 -38 c-7 -2 -19 -2 -25 0 -7 3 -2 5 12 5 14 0 19 -2 13 -5z"/>
<path d="M1170 1793 c0 -4 5 -15 10 -23 8 -13 10 -13 10 2 0 9 -4 20 -10 23
-5 3 -10 3 -10 -2z"/>
<path d="M1231 1754 c0 -11 3 -14 6 -6 3 7 2 16 -1 19 -3 4 -6 -2 -5 -13z"/>
</g>
</svg>
